{
  "source": "C:\\Users\\Peter\\Desktop\\stuff\\MIUN\\quantitative_research\\video_compression\\videos\\UVG\\ShakeNDry_1920x1080_120fps_420_8bit_YUV.y4m",
  "output": "C:\\Users\\Peter\\Desktop\\stuff\\MIUN\\quantitative_research\\video_compression\\compressed_videos\\UVG\\h264\\8\\ShakeNDry_1920x1080_120fps_420_8bit_YUV_h264.mp4",
  "codec": "h264",
  "ok": "[yuv4mpegpipe @ 000002adf9166600] Stream #0: not enough frames to estimate rate; consider increasing probesize\nInput #0, yuv4mpegpipe, from 'C:\\Users\\Peter\\Desktop\\stuff\\MIUN\\quantitative_research\\video_compression\\videos\\UVG\\ShakeNDry_1920x1080_120fps_420_8bit_YUV.y4m':\n  Duration: 00:00:02.50, start: 0.000000, bitrate: 2985989 kb/s\n  Stream #0:0: Video: rawvideo (I420 / 0x30323449), yuv420p(progressive), 1920x1080, 120 fps, 120 tbr, 120 tbn\n[out#0/mp4 @ 000002adf916a240] Codec AVOption b:a (set bitrate (in bits/s)) has not been used for any stream. The most likely reason is either wrong type (e.g. a video option with no video streams) or that it is a private option of some decoder which was not actually used for any stream.\nStream mapping:\n  Stream #0:0 -> #0:0 (rawvideo (native) -> h264 (libx264))\nPress [q] to stop, [?] for help\n[libx264 @ 000002adf916ca80] using cpu capabilities: MMX2 SSE2Fast SSSE3 SSE4.2 AVX FMA3 BMI2 AVX2\n[libx264 @ 000002adf916ca80] profile High, level 5.1, 4:2:0, 8-bit\n[libx264 @ 000002adf916ca80] 264 - core 165 r3222 b35605a - H.264/MPEG-4 AVC codec - Copyleft 2003-2025 - http://www.videolan.org/x264.html - options: cabac=1 ref=5 deblock=1:0:0 analyse=0x3:0x113 me=hex subme=8 psy=1 psy_rd=1.00:0.00 mixed_ref=1 me_range=16 chroma_me=1 trellis=2 8x8dct=1 cqm=0 deadzone=21,11 fast_pskip=1 chroma_qp_offset=-2 threads=18 lookahead_threads=3 sliced_threads=0 nr=0 decimate=1 interlaced=0 bluray_compat=0 constrained_intra=0 bframes=3 b_pyramid=2 b_adapt=1 b_bias=0 direct=3 weightb=1 open_gop=0 weightp=2 keyint=250 keyint_min=25 scenecut=40 intra_refresh=0 rc_lookahead=50 rc=cbr mbtree=1 bitrate=8000 ratetol=1.0 qcomp=0.60 qpmin=0 qpmax=69 qpstep=4 vbv_maxrate=8000 vbv_bufsize=8000 nal_hrd=none filler=0 ip_ratio=1.40 aq=1:1.00\nOutput #0, mp4, to 'C:\\Users\\Peter\\Desktop\\stuff\\MIUN\\quantitative_research\\video_compression\\compressed_videos\\UVG\\h264\\8\\ShakeNDry_1920x1080_120fps_420_8bit_YUV_h264.mp4':\n  Metadata:\n    encoder         : Lavf62.3.100\n  Stream #0:0: Video: h264 (avc1 / 0x31637661), yuv420p(tv, progressive), 1920x1080, q=2-31, 8000 kb/s, 120 fps, 15360 tbn\n    Metadata:\n      encoder         : Lavc62.11.100 libx264\n    Side data:\n      cpb: bitrate max/min/avg: 8000000/0/8000000 buffer size: 8000000 vbv_delay: N/A\nframe=    0 fps=0.0 q=0.0 size=       0KiB time=N/A bitrate=N/A speed=N/A elapsed=0:00:00.51    \nframe=   12 fps= 12 q=41.0 size=       0KiB time=00:00:00.08 bitrate=   4.6kbits/s speed=0.0812x elapsed=0:00:01.02    \nframe=   45 fps= 29 q=37.0 size=       0KiB time=00:00:00.35 bitrate=   1.1kbits/s speed=0.231x elapsed=0:00:01.55    \nframe=   76 fps= 36 q=38.0 size=     512KiB time=00:00:00.61 bitrate=6802.2kbits/s speed=0.295x elapsed=0:00:02.08    \nframe=  109 fps= 42 q=35.0 size=     768KiB time=00:00:00.89 bitrate=7056.3kbits/s speed=0.341x elapsed=0:00:02.61    \nframe=  148 fps= 47 q=33.0 size=    1024KiB time=00:00:01.21 bitrate=6895.1kbits/s speed=0.388x elapsed=0:00:03.13    \nframe=  184 fps= 50 q=33.0 size=    1024KiB time=00:00:01.49 bitrate=5623.9kbits/s speed=0.408x elapsed=0:00:03.65    \nframe=  217 fps= 52 q=34.0 size=    1280KiB time=00:00:01.79 bitrate=5852.7kbits/s speed=0.428x elapsed=0:00:04.18    \nframe=  250 fps= 53 q=35.0 size=    1536KiB time=00:00:02.06 bitrate=6088.7kbits/s speed=0.439x elapsed=0:00:04.70    \nframe=  279 fps= 53 q=29.0 size=    1792KiB time=00:00:02.30 bitrate=6359.8kbits/s speed=0.442x elapsed=0:00:05.22    \n[mp4 @ 000002adf916a340] Starting second pass: moving the moov atom to the beginning of the file\n[out#0/mp4 @ 000002adf916a240] video:1996KiB audio:0KiB subtitle:0KiB other streams:0KiB global headers:0KiB muxing overhead: 0.218713%\nframe=  300 fps= 55 q=-1.0 Lsize=    2001KiB time=00:00:02.48 bitrate=6599.8kbits/s speed=0.455x elapsed=0:00:05.45    \n[libx264 @ 000002adf916ca80] frame I:2     Avg QP:30.19  size:107536\n[libx264 @ 000002adf916ca80] frame P:76    Avg QP:31.85  size: 12308\n[libx264 @ 000002adf916ca80] frame B:222   Avg QP:36.54  size:  4022\n[libx264 @ 000002adf916ca80] consecutive B-frames:  1.3%  0.0%  0.0% 98.7%\n[libx264 @ 000002adf916ca80] mb I  I16..4:  4.9% 87.4%  7.7%\n[libx264 @ 000002adf916ca80] mb P  I16..4:  0.1%  1.6%  0.1%  P16..4: 29.2%  3.7%  6.5%  0.0%  0.0%    skip:58.7%\n[libx264 @ 000002adf916ca80] mb B  I16..4:  0.0%  0.1%  0.0%  B16..8: 21.6%  1.2%  0.1%  direct: 0.9%  skip:76.0%  L0:35.5% L1:63.8% BI: 0.7%\n[libx264 @ 000002adf916ca80] 8x8 transform intra:89.2% inter:72.2%\n[libx264 @ 000002adf916ca80] direct mvs  spatial:95.5% temporal:4.5%\n[libx264 @ 000002adf916ca80] coded y,uvDC,uvAC intra: 76.1% 56.6% 26.2% inter: 5.0% 2.9% 0.1%\n[libx264 @ 000002adf916ca80] i16 v,h,dc,p: 22% 20%  7% 51%\n[libx264 @ 000002adf916ca80] i8 v,h,dc,ddl,ddr,vr,hd,vl,hu:  4%  6%  2% 10% 19% 15% 21% 10% 12%\n[libx264 @ 000002adf916ca80] i4 v,h,dc,ddl,ddr,vr,hd,vl,hu:  3%  4%  1% 11% 19% 14% 21% 10% 16%\n[libx264 @ 000002adf916ca80] i8c dc,h,v,p: 45% 25% 13% 17%\n[libx264 @ 000002adf916ca80] Weighted P-Frames: Y:0.0% UV:0.0%\n[libx264 @ 000002adf916ca80] ref P L0: 50.9% 20.2% 15.4%  6.2%  7.3%\n[libx264 @ 000002adf916ca80] ref B L0: 69.4% 18.5%  9.4%  2.7%\n[libx264 @ 000002adf916ca80] ref B L1: 90.4%  9.6%\n[libx264 @ 000002adf916ca80] kb/s:6539.10\n",
  "seconds": 5.591988801956177,
  "probe_out": {}
}